<?xml version="1.0" standalone="no"?><!DOCTYPE svg PUBLIC "-//W3C//DTD SVG 1.1//EN" "http://www.w3.org/Graphics/SVG/1.1/DTD/svg11.dtd"><svg t="1758163712831" class="icon" viewBox="0 0 1311 1024" version="1.1" xmlns="http://www.w3.org/2000/svg" p-id="15920" xmlns:xlink="http://www.w3.org/1999/xlink" width="40.96875" height="32"><path d="M890.566443 58.309087c9.561296 2.731799 18.439643 7.512447 25.95209 12.976044 5.463598 6.146548 9.561296 13.658995 11.610145 21.854392 2.048849 4.097698 6.829497 6.146548 10.927196 4.097698 2.048849-0.68295 3.414749-2.731799 4.097698-4.097698 2.731799-8.195397 7.512447-16.390793 12.976045-23.220291 6.829497-5.463598 15.024894-9.561296 23.903241-11.610145 4.097698-1.365899 6.146548-5.463598 4.780648-9.561297-0.68295-2.048849-2.731799-4.097698-4.780648-4.780648-8.878346-2.731799-17.073743-6.829497-24.586191-12.293095-5.463598-6.829497-10.244246-14.341944-12.976044-23.22029-2.048849-4.097698-6.829497-6.146548-10.927196-4.097699-2.048849 0.68295-3.414749 2.731799-4.097698 4.097699-2.731799 8.195397-6.829497 15.707844-12.293095 22.537341-7.512447 5.463598-16.390793 10.244246-25.26914 12.976044-4.097698 1.365899-6.146548 5.463598-4.780648 9.561297 0.68295 2.048849 2.731799 4.097698 5.463597 4.780648zM122.248001 601.254119c-10.927196-3.414749-21.854391-8.878346-30.732738-15.707843-6.829497-8.878346-12.293095-19.122592-16.390793-30.049788-2.048849-5.463598-8.878346-8.195397-14.341944-5.463598-2.731799 1.365899-4.780648 3.414749-5.463598 5.463598-3.414749 10.927196-8.878346 20.488492-15.707844 29.366838-9.561296 7.512447-20.488492 12.976045-32.781587 16.390793-5.463598 2.048849-8.195397 7.512447-6.146547 12.976045 0.68295 2.731799 3.414749 5.463598 6.146547 6.146548 12.293095 4.097698 23.220291 9.561296 33.464537 17.073743 6.829497 8.195397 11.610145 17.756693 15.024894 28.000939 2.048849 5.463598 8.878346 8.195397 14.341944 5.463597 2.731799-1.365899 4.780648-3.414749 5.463598-5.463597 3.414749-10.927196 9.561296-21.171442 16.390793-30.049788 8.878346-6.829497 19.122592-12.293095 30.049788-15.707844 5.463598-2.048849 7.512447-7.512447 6.146548-12.976045-0.68295-2.048849-2.731799-4.097698-5.463598-5.463598zM249.27665 299.39034c8.195397 2.731799 16.390793 6.829497 23.220291 11.610145 4.780648 5.463598 8.195397 12.293095 10.244246 19.122593 2.048849 4.097698 6.146548 5.463598 10.244246 3.414748 1.365899-0.68295 2.731799-2.048849 3.414748-3.414748 2.731799-7.512447 6.829497-14.341944 11.610146-20.488492 6.146548-4.780648 13.658995-8.195397 21.171441-10.244246 3.414749-1.365899 5.463598-4.780648 4.097699-8.878346-0.68295-2.048849-2.048849-3.414749-4.097699-4.097699-7.512447-2.048849-15.024894-6.146548-21.854391-10.927195-4.780648-6.146548-8.878346-12.976045-11.610145-20.488492-2.048849-4.097698-6.146548-5.463598-10.244246-3.414749-1.365899 0.68295-2.731799 2.048849-3.414749 3.414749-2.731799 7.512447-6.146548 13.658995-10.927196 19.805542-6.829497 4.780648-14.341944 8.878346-22.537341 10.927196-4.097698 0-6.829497 2.731799-6.829497 6.829497 0.68295 4.097698 4.097698 6.829497 7.512447 6.829497zM966.373863 975.510569c-7.512447-2.048849-15.024894-6.146548-21.854391-10.927195-4.780648-6.146548-8.878346-12.976045-11.610146-20.488492-2.048849-4.097698-6.146548-5.463598-10.244245-3.414749-1.365899 0.68295-2.731799 2.048849-3.414749 3.414749-2.731799 7.512447-6.146548 14.341944-10.927196 19.805542-6.829497 4.780648-14.341944 8.878346-22.537341 10.927196-3.414749 1.365899-5.463598 4.780648-4.780648 8.878346 0.68295 2.048849 2.048849 4.097698 4.780648 4.780648 8.195397 2.731799 16.390793 6.829497 23.220291 11.610146 4.780648 5.463598 8.195397 12.293095 10.927196 19.122592 2.048849 4.097698 6.146548 5.463598 10.244246 3.414749 1.365899-0.68295 2.731799-2.048849 3.414748-3.414749 2.731799-7.512447 6.829497-14.341944 11.610146-20.488492 6.146548-4.780648 13.658995-8.195397 21.171441-10.244246 3.414749-1.365899 5.463598-5.463598 3.414749-8.878346 0-2.048849-1.365899-3.414749-3.414749-4.097699zM887.151695 491.299213c0-6.146548-4.780648-10.927196-10.927196-10.927195-6.146548 0-10.927196 4.780648-10.927195 10.927195 0 6.146548 4.780648 10.927196 10.927195 10.927196 6.146548 0.68295 10.927196-4.780648 10.927196-10.927196zM1047.644881 821.163931c-12.293095 0-22.537341 10.244246-22.537341 22.537341s10.244246 22.537341 22.537341 22.537341 22.537341-10.244246 22.537341-22.537341c0-12.293095-10.244246-22.537341-22.537341-22.537341zM94.247062 373.148911c9.561296 0 17.073743-7.512447 17.073743-17.073744s-7.512447-17.073743-17.073743-17.073743-17.073743 7.512447-17.073743 17.073743 7.512447 17.073743 17.073743 17.073744zM451.429769 982.340067c-7.512447 0-14.341944 6.146548-14.341944 13.658994s6.146548 14.341944 13.658995 14.341944 14.341944-6.146548 14.341944-13.658994c0-8.195397-5.463598-14.341944-13.658995-14.341944zM482.845457 48.74779c8.195397 2.731799 15.707844 6.829497 22.537341 11.610146 4.780648 5.463598 8.195397 12.293095 10.927195 19.122592 2.048849 4.097698 6.146548 5.463598 10.244246 3.414749 1.365899-0.68295 2.731799-2.048849 3.414749-3.414749 2.731799-7.512447 6.829497-14.341944 11.610145-20.488492 6.829497-4.780648 13.658995-8.195397 21.854391-10.244246 3.414749-1.365899 5.463598-4.780648 4.097699-8.878346-0.68295-2.048849-2.048849-3.414749-4.097699-4.097698-7.512447-2.048849-15.024894-6.146548-21.854391-10.927196-4.780648-6.146548-8.878346-12.976045-11.610145-20.488492-2.048849-4.097698-6.146548-5.463598-10.244246-3.414748-1.365899 0.68295-2.731799 2.048849-3.414749 3.414748-2.048849 7.512447-6.146548 14.341944-10.927195 20.488492-6.829497 4.780648-14.341944 8.878346-22.537341 10.927196-3.414749 1.365899-5.463598 4.780648-4.780648 8.195396 0.68295 2.731799 2.731799 4.097698 4.780648 4.780648zM718.463112 879.897608c-9.561296 0-17.073743 7.512447-16.390793 17.073743 0 9.561296 7.512447 17.073743 17.073743 16.390793 9.561296 0 16.390793-7.512447 16.390794-17.073743 0-8.878346-7.512447-16.390793-17.073744-16.390793zM437.087825 147.775501c9.561296 0 17.073743-7.512447 17.073743-17.073743s-7.512447-17.073743-17.073743-17.073744-17.073743 7.512447-17.073743 17.073744 7.512447 17.073743 17.073743 17.073743zM316.888673 963.217474c-7.512447-2.048849-15.024894-6.146548-21.854391-10.927195-4.780648-6.146548-8.878346-12.976045-11.610145-20.488492-2.048849-4.097698-6.146548-5.463598-10.244246-3.414749-1.365899 0.68295-2.731799 2.048849-3.414749 3.414749-2.731799 7.512447-6.146548 14.341944-10.927196 19.805542-6.829497 4.780648-14.341944 8.878346-22.537341 11.610145-3.414749 1.365899-5.463598 4.780648-4.780648 8.878347 0.68295 2.048849 2.048849 4.097698 4.780648 4.780648 8.195397 2.731799 15.707844 6.146548 23.220291 11.610145 4.780648 5.463598 8.195397 12.293095 10.244246 19.122593 2.048849 4.097698 6.146548 5.463598 10.244246 3.414748 1.365899-0.68295 2.731799-2.048849 3.414749-3.414748 2.731799-7.512447 6.829497-14.341944 11.610145-20.488492 6.146548-4.780648 13.658995-8.195397 21.171441-10.244246 3.414749-1.365899 5.463598-5.463598 3.414749-8.878347 0-2.731799-1.365899-4.097698-2.731799-4.780648zM495.821501 504.275258c-9.561296 0-17.073743 7.512447-17.073743 17.073743s7.512447 17.073743 17.073743 17.073743 17.073743-7.512447 17.073744-17.073743-7.512447-17.073743-17.073744-17.073743z" fill="#1296db" p-id="15921"></path><path d="M416.599333 380.661358c-139.321744 0-252.691399 113.369655-252.691399 252.691398s113.369655 252.691399 252.691399 252.691399 252.691399-113.369655 252.691399-252.691399-113.369655-252.691399-252.691399-252.691398z m0 450.746819c-109.271956 0-198.055421-88.783464-198.05542-198.055421s88.783464-198.055421 198.05542-198.05542 198.055421 88.783464 198.055421 198.05542-88.783464 198.055421-198.055421 198.055421zM1307.848726 118.408663c-7.512447-12.976045-23.90324-17.756693-37.562235-10.244246h-0.682949l-538.164385 310.742125c-12.976045 7.512447-17.756693 24.58619-10.244246 37.562235s24.58619 17.756693 37.562235 10.244246L1297.60448 155.287948c12.976045-7.512447 17.756693-23.90324 10.244246-36.879285zM1076.328769 440.760934l-307.327377 177.566928c-12.976045 7.512447-17.756693 24.58619-10.244246 37.562235s24.58619 17.756693 37.562235 10.244246l307.327377-177.566929c12.976045-7.512447 17.756693-24.58619 10.244246-37.562235s-24.58619-17.756693-37.562235-10.244245zM615.337704 352.660419l307.327377-177.566929c12.976045-7.512447 17.756693-24.58619 10.244245-37.562235s-24.58619-17.756693-37.562234-10.244246l-307.327377 177.566929c-12.976045 7.512447-17.756693 24.58619-10.244246 37.562235s24.58619 17.756693 37.562235 10.244246z" fill="#1296db" p-id="15922"></path></svg>