<?xml version="1.0" standalone="no"?><!DOCTYPE svg PUBLIC "-//W3C//DTD SVG 1.1//EN" "http://www.w3.org/Graphics/SVG/1.1/DTD/svg11.dtd"><svg t="1758185411654" class="icon" viewBox="0 0 1024 1024" version="1.1" xmlns="http://www.w3.org/2000/svg" p-id="1297" xmlns:xlink="http://www.w3.org/1999/xlink" width="32" height="32"><path d="M480 0h64v192h-64V0zM715.264 363.776A64 64 0 0 0 654.528 320h-305.92a64 64 0 0 0-56.512 33.984L242.176 448H224V384H0v512h224v-64h76.864l93.824 96 405.312-82.944V896H1024V384h-224v64h-56.64l-28.096-84.224zM675.84 448H485.12a64 64 0 0 0-57.408 35.84l-62.656 128A64 64 0 0 0 422.528 704h58.944c36.608 0 71.36-16.448 94.528-44.8h76.8l61.568 138.048-298.368 61.056L327.808 768H224V512h56.704l67.904-128h305.92l21.312 64z m188.16 384V448H960v384h-96z m-64-67.84l-31.104-1.792L694.336 595.2H545.664l-19.2 23.488-5.056 5.44a58.112 58.112 0 0 1-39.936 15.872h-58.88l62.592-128H800v252.16zM160 448v384H64V448h96zM192 105.152L241.024 64l82.304 98.048-49.024 41.152L192 105.152zM783.104 64l49.024 41.152-82.304 98.048-49.024-41.152L783.104 64z" fill="#189DFF" p-id="1298"></path></svg>