<?xml version="1.0" standalone="no"?><!DOCTYPE svg PUBLIC "-//W3C//DTD SVG 1.1//EN" "http://www.w3.org/Graphics/SVG/1.1/DTD/svg11.dtd"><svg t="1758705799769" class="icon" viewBox="0 0 1024 1024" version="1.1" xmlns="http://www.w3.org/2000/svg" p-id="1329" xmlns:xlink="http://www.w3.org/1999/xlink" width="32" height="32"><path d="M204.8 940.8C115.2 908.8 64 857.6 64 800 64 640 147.2 492.8 288 409.6 358.4 531.2 512 576 633.6 512c44.8-25.6 76.8-57.6 102.4-102.4C876.8 492.8 960 640 960 800c0 57.6-51.2 108.8-140.8 140.8-198.4 57.6-416 57.6-614.4 0zM288 256C288 134.4 390.4 32 512 32s224 102.4 224 224S633.6 480 512 480 288 377.6 288 256z" fill="#4C84FC" p-id="1330"></path></svg>