<?xml version="1.0" standalone="no"?><!DOCTYPE svg PUBLIC "-//W3C//DTD SVG 1.1//EN" "http://www.w3.org/Graphics/SVG/1.1/DTD/svg11.dtd"><svg t="1758185747037" class="icon" viewBox="0 0 1024 1024" version="1.1" xmlns="http://www.w3.org/2000/svg" p-id="1018" xmlns:xlink="http://www.w3.org/1999/xlink" width="32" height="32"><path d="M166.86 157c-10.9 0-19.72 8.82-19.72 19.72v670.56c0 10.9 8.82 19.72 19.72 19.72s19.72-8.82 19.72-19.72V176.72c0-10.9-8.82-19.72-19.72-19.72z" fill="#1D2088" p-id="1019"></path><path d="M186.58 400.23v78.89h685.35c2.72 0 4.93-2.21 4.93-4.93v-69.03c0-2.72-2.21-4.93-4.93-4.93H186.58z" fill="#4AFFFD" p-id="1020"></path><path d="M576.1 255.61H186.58v78.89H576.1c2.72 0 4.93-2.21 4.93-4.93v-69.03c0-2.72-2.21-4.93-4.93-4.93zM477.49 544.88h-290.9v78.89h290.9c2.72 0 4.93-2.21 4.93-4.93v-69.03c0-2.73-2.21-4.93-4.93-4.93zM186.58 689.5v78.89h488.13c2.72 0 4.93-2.21 4.93-4.93v-69.03c0-2.72-2.21-4.93-4.93-4.93H186.58z" fill="#5E69FF" p-id="1021"></path></svg>