<?xml version="1.0" standalone="no"?><!DOCTYPE svg PUBLIC "-//W3C//DTD SVG 1.1//EN" "http://www.w3.org/Graphics/SVG/1.1/DTD/svg11.dtd"><svg t="1758525317599" class="icon" viewBox="0 0 1024 1024" version="1.1" xmlns="http://www.w3.org/2000/svg" p-id="2466" data-spm-anchor-id="a313x.manage_type_myprojects.0.i20.68bd3a81hAoyiF" xmlns:xlink="http://www.w3.org/1999/xlink" width="32" height="32"><path d="M303.36 227.84v554.666667A185.173333 185.173333 0 0 0 488.96 597.333333V42.666667a185.173333 185.173333 0 0 0-185.6 185.173333zM426.666667 413.44h34.986666v162.133333H426.666667z m34.986666 162.133333v11.52a23.466667 23.466667 0 0 1-23.466666 23.04h-85.333334a23.04 23.04 0 0 1-23.04-23.04V413.44h34.56v162.133333z" fill="#1296db" p-id="2467" data-spm-anchor-id="a313x.manage_type_myprojects.0.i21.68bd3a81hAoyiF" class=""></path><path d="M535.04 426.666667v567.466666a185.6 185.6 0 0 0 185.6-185.6V239.36A185.6 185.6 0 0 0 535.04 426.666667z m92.586667 69.546666l34.986666-81.066666h34.56l-52.053333 121.6v73.386666h-34.56v-75.093333l-52.053333-121.6h34.56z" fill="#1296db" p-id="2468" data-spm-anchor-id="a313x.manage_type_myprojects.0.i19.68bd3a81hAoyiF" class=""></path><path d="M66.133333 366.933333v549.973334H85.333333a173.653333 173.653333 0 0 0 170.666667-173.653334V175.786667A191.146667 191.146667 0 0 0 66.133333 366.933333z m130.133334 243.2H92.16v-34.56H196.266667z m0-81.066666H92.16v-34.56H196.266667z m34.986666-11.52v69.546666a23.04 23.04 0 0 1-23.04 23.04H196.266667v-115.626666h11.946666a23.04 23.04 0 0 1 23.04 23.04z m-11.52-69.546667h-128v-34.56h128zM768 233.813333v549.973334a190.72 190.72 0 0 0 191.146667-191.146667V42.666667A191.573333 191.573333 0 0 0 768 233.813333z m140.8 376.32l-46.506667-143.36-46.506666 143.36h-34.56l63.573333-196.693333h34.986667l63.573333 196.693333z" fill="#5ebced" p-id="2469" data-spm-anchor-id="a313x.manage_type_myprojects.0.i18.68bd3a81hAoyiF" class=""></path><path d="M364.373333 413.44h-34.56v173.653333a23.04 23.04 0 0 0 23.04 23.04h85.333334a23.466667 23.466667 0 0 0 23.466666-23.04v-11.52H364.373333z" fill="#0d507b" p-id="2470" data-spm-anchor-id="a313x.manage_type_myprojects.0.i24.68bd3a81hAoyiF" class="selected"></path><path d="M427.946667 413.44h34.56v162.133333h-34.56zM844.8 413.44l-63.573333 196.693333h34.986666l46.08-143.36 46.506667 143.36h34.56l-63.573333-196.693333h-34.986667zM610.56 535.04v75.093333h34.56v-75.093333l52.053333-121.6h-34.56l-34.986666 81.066667-34.56-81.066667h-34.56l52.053333 121.6zM92.16 413.44h127.573333v34.56H92.16zM208.213333 494.506667H196.266667v115.626666h11.946666a23.04 23.04 0 0 0 23.04-23.04v-69.546666a23.04 23.04 0 0 0-23.04-23.04zM92.16 575.573333H196.266667v34.56H92.16zM92.16 494.506667H196.266667v34.56H92.16z" fill="#0d507b" p-id="2471" data-spm-anchor-id="a313x.manage_type_myprojects.0.i23.68bd3a81hAoyiF" class="selected"></path></svg>