<?xml version="1.0" standalone="no"?><!DOCTYPE svg PUBLIC "-//W3C//DTD SVG 1.1//EN" "http://www.w3.org/Graphics/SVG/1.1/DTD/svg11.dtd"><svg t="1758698816174" class="icon" viewBox="0 0 1024 1024" version="1.1" xmlns="http://www.w3.org/2000/svg" p-id="1145" xmlns:xlink="http://www.w3.org/1999/xlink" width="32" height="32"><path d="M220.5184 672.8192a15.36 15.36 0 0 1-15.36-15.36V199.3728a120.32 120.32 0 0 1 120.2176-120.1664h500.2752a86.3744 86.3744 0 0 1 86.272 86.272v124.0576a86.3232 86.3232 0 0 1-86.272 86.272h-28.672v24.6784a116.6848 116.6848 0 1 1-233.3184 0v-122.88a49.7664 49.7664 0 0 0-99.5328 0v258.2016a15.36 15.36 0 0 1-30.72 0V277.4528a80.4864 80.4864 0 0 1 160.9728 0v122.88a85.9648 85.9648 0 1 0 171.8784 0V375.808h-48.896a62.6688 62.6688 0 0 1-62.6176-62.6176V239.1552a71.1168 71.1168 0 1 1 142.2336 0V345.088h28.672a55.6032 55.6032 0 0 0 55.552-55.552V165.4784a55.6544 55.6544 0 0 0-55.552-55.552H325.376a89.6 89.6 0 0 0-89.4976 89.4464v458.0864a15.36 15.36 0 0 1-15.36 15.36z m505.344-474.0608a40.448 40.448 0 0 0-40.3968 40.3968v74.0352a31.9488 31.9488 0 0 0 31.8976 31.8976h48.896V239.1552a40.448 40.448 0 0 0-40.3968-40.3968z" fill="#042A76" p-id="1146"></path><path d="M141.056 453.0688m52.224 0l56.7296 0q52.224 0 52.224 52.224l0 382.6688q0 52.224-52.224 52.224l-56.7296 0q-52.224 0-52.224-52.224l0-382.6688q0-52.224 52.224-52.224Z" fill="#68CCD2" p-id="1147"></path><path d="M365.9264 453.0688m52.224 0l56.7296 0q52.224 0 52.224 52.224l0 382.6688q0 52.224-52.224 52.224l-56.7296 0q-52.224 0-52.224-52.224l0-382.6688q0-52.224 52.224-52.224Z" fill="#68CCD2" p-id="1148"></path><path d="M141.056 512.5632h161.1776v27.2384H141.056zM141.056 561.92h161.1776v27.2384H141.056zM141.056 821.8624h161.1776v54.4768H141.056zM365.9264 512.5632h161.1776v27.2384H365.9264zM365.9264 561.92h161.1776v27.2384H365.9264zM365.9264 821.8624h161.1776v54.4768H365.9264z" fill="#FFFFFF" p-id="1149"></path><path d="M250.0608 955.5456H193.28a67.6352 67.6352 0 0 1-67.584-67.5328V505.2928a67.6352 67.6352 0 0 1 67.584-67.584h56.7808A67.6352 67.6352 0 0 1 317.44 505.2928v382.72a67.6352 67.6352 0 0 1-67.3792 67.5328zM193.28 468.4288a36.9152 36.9152 0 0 0-36.864 36.864v382.72a36.9152 36.9152 0 0 0 36.864 36.8128h56.7808a36.864 36.864 0 0 0 36.6592-36.8128V505.2928a36.864 36.864 0 0 0-36.8128-36.864zM474.88 955.5456H418.1504a67.6352 67.6352 0 0 1-67.584-67.5328V505.2928a67.6352 67.6352 0 0 1 67.584-67.584h56.7296A67.6352 67.6352 0 0 1 542.72 505.2928v382.72a67.6352 67.6352 0 0 1-67.84 67.5328zM418.1504 468.4288a36.9152 36.9152 0 0 0-36.864 36.864v382.72a36.9152 36.9152 0 0 0 36.864 36.8128h56.7296a36.9152 36.9152 0 0 0 36.864-36.8128V505.2928a36.9152 36.9152 0 0 0-36.864-36.864z" fill="#042A76" p-id="1150"></path></svg>